#!OML:ASF H:\ManfredETheater\Project 1\Capture day 1\Session 1\subject.ASF
:FULLY-SPECIFIED
:DEGREES
211
root -12.5073 17.166 -41.4391 -535.789 -30.6909 175.157
lowerback 8.44839 -4.28267 -2.18561
upperback -3.35089 -5.86013 2.27917
thorax -7.81296 -2.70504 4.49969
lowerneck -21.4367 -2.0074 -2.46849
upperneck 8.97456 -1.7435 -2.67413
head 6.17209 -1.22494 -0.674877
rclavicle 1.15947e-014 6.36111e-015
rhumerus -76.3851 3.63869 -80.5256
rradius 102.638
rwrist -3.44488
rhand -23.0019 8.12014
rfingers 7.12502
rthumb 3.4413 -21.8318
lclavicle 1.15947e-014 6.36111e-015
lhumerus -45.0103 -22.1019 101.731
lradius 115.864
lwrist 4.62932
lhand -18.2162 -14.1059
lfingers 7.12502
lthumb 8.06164 15.7204
rfemur -40.4516 -3.2141 14.629
rtibia 35.0912
rfoot 2.59833 -12.2719
rtoes -30.096
lfemur 8.99922 -6.14317 -14.0646
ltibia 63.5453
lfoot 16.1686 -9.07367
ltoes -5.42059
212
root -12.6415 17.0767 -41.8268 -537.136 -29.8524 176.666
lowerback 9.26646 -3.97994 -1.00511
upperback -3.21605 -5.29818 2.7156
thorax -8.25405 -2.4708 4.29811
lowerneck -21.197 -1.88039 -2.25591
upperneck 8.53093 -1.62663 -2.98026
head 5.98775 -1.18521 -0.788032
rclavicle 6.28315e-014 -4.77083e-015
rhumerus -75.6179 3.68585 -80.1791
rradius 102.565
rwrist -3.4758
rhand -23.0645 8.27857
rfingers 7.12502
rthumb 3.38082 -21.6744
lclavicle 6.28315e-014 -4.77083e-015
lhumerus -45.0932 -21.9176 102.446
lradius 115.029
lwrist 3.88361
lhand -18.0523 -14.5736
lfingers 7.12502
lthumb 8.21985 15.2465
rfemur -40.8794 -2.99923 16.7036
rtibia 38.9537
rfoot 2.60135 -10.5187
rtoes -27.4785
lfemur 8.3924 -5.56132 -12.7801
ltibia 66.5701
lfoot 15.817 -10.0817
ltoes -6.75203
213
root -12.7732 16.9878 -42.2062 -538.409 -28.926 178.093
lowerback 10.1011 -3.66899 0.0908875
upperback -3.05705 -4.72077 3.13374
thorax -8.66305 -2.23296 4.10852
lowerneck -20.9637 -1.75218 -2.03849
upperneck 8.0556 -1.5205 -3.21778
head 5.79574 -1.14353 -0.880723
rclavicle -1.1222e-014 -1.27222e-014
rhumerus -74.5447 3.75587 -79.8978
rradius 102.156
rwrist -3.52658
rhand -23.1355 8.46983
rfingers 7.12502
rthumb 3.31226 -21.4842
lclavicle -1.1222e-014 -1.27222e-014
lhumerus -45.1396 -21.5245 103.114
lradius 113.986
lwrist 3.11905
lhand -17.9764 -15.0133
lfingers 7.12502
lthumb 8.29312 14.8039
rfemur -41.1344 -2.63557 18.6794
rtibia 42.8358
rfoot 1.31531 -9.11798
rtoes -23.9088
lfemur 7.61282 -4.93256 -11.5512
ltibia 69.6842
lfoot 15.2526 -11.2027
ltoes -8.23327
214
root -12.9018 16.9017 -42.5812 -539.527 -27.997 179.291
lowerback 10.8786 -3.36728 0.953387
upperback -2.87133 -4.17655 3.50076
thorax -8.98328 -2.00694 3.98146
lowerneck -20.7321 -1.62591 -1.84302
upperneck 7.54993 -1.42546 -3.34905
head 5.59597 -1.09806 -0.936795
rclavicle 5.5888e-014 2.06736e-014
rhumerus -73.1285 3.8528 -79.6714
rradius 101.351
rwrist -3.62839
rhand -23.1891 8.67517
rfingers 7.12502
rthumb 3.2605 -21.2796
lclavicle 5.5888e-014 2.06736e-014
lhumerus -45.1562 -20.9326 103.713
lradius 112.725
lwrist 2.40194
lhand -18.0341 -15.3509
lfingers 7.12502
lthumb 8.23747 14.4685
rfemur -41.0971 -2.21459 20.4172
rtibia 46.4288
rfoot -0.884341 -7.87184
rtoes -20.8779
lfemur 6.66991 -4.30591 -10.5115
ltibia 72.7648
lfoot 14.5 -12.3642
ltoes -9.24325
215
root -13.027 16.8232 -42.9525 -540.429 -27.1792 180.174
lowerback 11.562 -3.10051 1.51542
upperback -2.67242 -3.71751 3.7917
thorax -9.20679 -1.81135 3.93836
lowerneck -20.5418 -1.51025 -1.6875
upperneck 7.05487 -1.3462 -3.35457
head 5.40758 -1.05135 -0.948761
rclavicle 3.23258e-014 2.54444e-014
rhumerus -71.3469 3.97701 -79.4887
rradius 100.115
rwrist -3.79273
rhand -23.1956 8.8516
rfingers 7.12502
rthumb 3.25425 -21.1033
lclavicle 3.23258e-014 2.54444e-014
lhumerus -45.1311 -20.1571 104.202
lradius 111.213
lwrist 1.8062
lhand -18.2147 -15.6351
lfingers 7.12502
lthumb 8.06316 14.1911
rfemur -40.7925 -1.85039 21.8048
rtibia 49.6344
rfoot -3.52291 -6.87007
rtoes -18.0224
lfemur 5.5052 -3.75671 -9.76078
ltibia 75.7665
lfoot 13.5828 -13.4506
ltoes -9.70717
216
root -13.1487 16.7546 -43.3226 -541.103 -26.5422 180.73
lowerback 12.098 -2.87905 1.76632
upperback -2.46605 -3.36783 3.99419
thorax -9.31323 -1.65502 3.97723
lowerneck -20.4302 -1.41618 -1.56756
upperneck 6.61639 -1.2932 -3.24298
head 5.2504 -1.01038 -0.92213
rclavicle -6.0766e-014 4.6118e-014
rhumerus -69.2075 4.11025 -79.3451
rradius 98.4478
rwrist -3.98467
rhand -23.1652 8.9715
rfingers 7.12502
rthumb 3.28354 -20.983
lclavicle -6.0766e-014 4.6118e-014
lhumerus -45.0677 -19.2571 104.558
lradius 109.45
lwrist 1.42271
lhand -18.4998 -15.7641
lfingers 7.12502
lthumb 7.78795 14.0725
rfemur -40.2526 -1.56567 22.7999
rtibia 52.4067
rfoot -6.17818 -6.19335
rtoes -16.1223
lfemur 4.09325 -3.32623 -9.33478
ltibia 78.6536
lfoot 12.5111 -14.3745
ltoes -9.66454
217
root -13.2668 16.6989 -43.692 -541.523 -26.1373 180.958
lowerback 12.4517 -2.71258 1.70922
upperback -2.2862 -3.14457 4.10699
thorax -9.32312 -1.54422 4.1021
lowerneck -20.3319 -1.34582 -1.49359
upperneck 6.23447 -1.26496 -3.03006
head 5.11407 -0.975297 -0.859369
rclavicle 7.78863e-014 -3.65764e-014
rhumerus -66.7833 4.24895 -79.2322
rradius 96.409
rwrist -4.11823
rhand -23.1139 9.03414
rfingers 7.12502
rthumb 3.33314 -20.9195
lclavicle 7.78863e-014 -3.65764e-014
lhumerus -45.0016 -18.2665 104.784
lradius 107.442
lwrist 1.36822
lhand -18.8894 -15.8292
lfingers 7.12502
lthumb 7.41193 14.0209
rfemur -39.5809 -1.41327 23.4092
rtibia 54.746
rfoot -8.5896 -6.00119
rtoes -16.0142
lfemur 2.37902 -3.04671 -9.2691
ltibia 81.4045
lfoot 11.3122 -15.0578
ltoes -8.99771
218
root -13.3826 16.6513 -44.0594 -541.729 -25.9633 180.969
lowerback 12.613 -2.60244 1.47474
upperback -2.14885 -3.03092 4.14832
thorax -9.25728 -1.47754 4.2592
lowerneck -20.2395 -1.30406 -1.46658
upperneck 5.93305 -1.26337 -2.74092
head 5.00486 -0.949 -0.768549
rclavicle -1.83006e-014 -7.95139e-015
rhumerus -64.1775 4.34442 -79.152
rradius 94.1442
rwrist -4.06526
rhand -23.0579 9.04842
rfingers 7.12502
rthumb 3.38714 -20.9044
lclavicle -1.83006e-014 -7.95139e-015
lhumerus -44.9572 -17.2616 104.89
lradius 105.225
lwrist 1.7065
lhand -19.3689 -15.8639
lfingers 7.12502
lthumb 6.94909 14.002
rfemur -38.8422 -1.35702 23.7418
rtibia 56.7069
rfoot -10.7537 -6.32455
rtoes -16.9054
lfemur 0.357941 -2.89996 -9.45503
ltibia 84.0185
lfoot 9.99577 -15.4828
ltoes -8.11622
219
root -13.4967 16.6123 -44.423 -541.779 -25.9544 180.917
lowerback 12.6135 -2.53236 1.22044
upperback -2.05808 -2.97855 4.15794
thorax -9.14735 -1.44021 4.39696
lowerneck -20.1993 -1.29013 -1.47985
upperneck 5.74711 -1.28258 -2.42358
head 4.94075 -0.932837 -0.665999
rclavicle 3.97694e-014 -9.38264e-014
rhumerus -61.4823 4.36054 -79.1042
rradius 91.8287
rwrist -3.71103
rhand -23.0183 9.0623
rfingers 7.12502
rthumb 3.42545 -20.8899
lclavicle 3.97694e-014 -9.38264e-014
lhumerus -44.9319 -16.3198 104.897
lradius 102.851
lwrist 2.4472
lhand -19.9024 -15.929
lfingers 7.12502
lthumb 6.43404 13.9533
rfemur -38.0866 -1.305 23.9552
rtibia 58.3339
rfoot -12.6574 -7.15213
rtoes -18.3948
lfemur -1.97775 -2.82925 -9.74093
ltibia 86.4853
lfoot 8.60528 -15.6613
ltoes -7.20817
